# xmcd
#
# Track frame offsets: 
#        150
#        18867
#        35013
#        55027
#        70103
#        86642
#        99233
#        120405
#        147591
#        164245
#        176357
#
# Disc length: 2593 seconds
#
# Revision: 0
# Processed by: cddbd v1.5.2PL0 Copyright (c) Steve Scherf et al.
# Submitted via: ExactAudioCopyFreeDBPlugin 1.0
#
DISCID=8e0a1f0b
DTITLE=Will Tucker - Worth the Gamble
DYEAR=1900
DGENRE=Blues
TTITLE0=You Can't Talk me Into Loving You
TTITLE1=Draw the Line
TTITLE2=Let's Stay Together
TTITLE3=Worth the Gamble
TTITLE4=Stone Free
TTITLE5=The Same Love That Made me Laugh
TTITLE6=Hate to See you Go
TTITLE7=Too Rolling Stoned (live)
TTITLE8=Travelin' South (live)
TTITLE9=Ain't Next to You
TTITLE10=Draw the Line
EXTD=
EXTT0=
EXTT1=
EXTT2=
EXTT3=
EXTT4=
EXTT5=
EXTT6=
EXTT7=
EXTT8=
EXTT9=
EXTT10=
PLAYORDER=
